<svg width="30" height="30" viewBox="0 0 30 30" fill="none" xmlns="http://www.w3.org/2000/svg">
<circle cx="15" cy="15" r="15" fill="#2A819E"/>
<path d="M18.2193 6.4151H11.7806C8.81781 6.4151 6.41513 8.81778 6.41513 11.7806V18.2192C6.41513 21.1821 8.81781 23.5847 11.7806 23.5847H18.2193C21.1821 23.5847 23.5848 21.1821 23.5848 18.2192V11.7806C23.5848 8.81778 21.1821 6.4151 18.2193 6.4151ZM21.9751 18.2192C21.9751 20.2903 20.2903 21.9751 18.2193 21.9751H11.7806C9.70955 21.9751 8.02478 20.2903 8.02478 18.2192V11.7806C8.02478 9.70952 9.70955 8.02475 11.7806 8.02475H18.2193C20.2903 8.02475 21.9751 9.70952 21.9751 11.7806V18.2192Z" fill="#FFFBA2"/>
<path d="M15.0002 10.7073C12.6298 10.7073 10.7078 12.6293 10.7078 14.9997C10.7078 17.3702 12.6298 19.2922 15.0002 19.2922C17.3707 19.2922 19.2926 17.3702 19.2926 14.9997C19.2926 12.6293 17.3707 10.7073 15.0002 10.7073ZM15.0002 17.6825C13.5215 17.6825 12.3175 16.4785 12.3175 14.9997C12.3175 13.5199 13.5215 12.317 15.0002 12.317C16.479 12.317 17.683 13.5199 17.683 14.9997C17.683 16.4785 16.479 17.6825 15.0002 17.6825Z" fill="#FFFBA2"/>
<path d="M19.6148 10.9584C19.9307 10.9584 20.1867 10.7024 20.1867 10.3865C20.1867 10.0706 19.9307 9.81451 19.6148 9.81451C19.2989 9.81451 19.0428 10.0706 19.0428 10.3865C19.0428 10.7024 19.2989 10.9584 19.6148 10.9584Z" fill="#FFFBA2"/>
</svg> 