<svg width="28" height="28" viewBox="0 0 28 28" fill="none" xmlns="http://www.w3.org/2000/svg">
<path d="M27.3816 23.5899L22.2347 18.4499C23.8149 15.9487 24.4172 12.9538 23.9266 10.0372C23.4359 7.12063 21.8867 4.48673 19.5748 2.63853C17.2629 0.79032 14.3503 -0.142676 11.3932 0.0177175C8.43616 0.178111 5.64187 1.42065 3.544 3.50805C1.44613 5.59545 0.191679 8.38143 0.0202207 11.3339C-0.151238 14.2864 0.772321 17.1985 2.6145 19.5141C4.45668 21.8297 7.0884 23.3865 10.0071 23.8872C12.9257 24.3879 15.9268 23.7974 18.4371 22.2285L23.584 27.3824C23.7792 27.5782 24.0112 27.7335 24.2666 27.8395C24.522 27.9454 24.7959 28 25.0725 28C25.3491 28 25.6229 27.9454 25.8784 27.8395C26.1338 27.7335 26.3657 27.5782 26.5609 27.3824L27.3816 26.5628C27.5776 26.3679 27.7331 26.1363 27.8393 25.8812C27.9454 25.6261 28 25.3526 28 25.0764C28 24.8002 27.9454 24.5267 27.8393 24.2716C27.7331 24.0165 27.5776 23.7848 27.3816 23.5899ZM12.08 20.8115C10.3578 20.8115 8.67415 20.3015 7.24213 19.3459C5.81011 18.3904 4.69398 17.0322 4.03489 15.4431C3.3758 13.8541 3.20335 12.1055 3.53935 10.4186C3.87535 8.73166 4.70471 7.18212 5.92254 5.96591C7.14038 4.7497 8.692 3.92145 10.3812 3.5859C12.0704 3.25035 13.8213 3.42257 15.4124 4.08077C17.0036 4.73898 18.3636 5.85362 19.3205 7.28373C20.2773 8.71384 20.788 10.3952 20.788 12.1152C20.7733 14.4155 19.8451 16.616 18.2072 18.2335C16.5693 19.8509 14.3556 20.7532 12.0522 20.7421L12.08 20.8115Z" fill="white"/>
</svg>
